<svg xmlns="http://www.w3.org/2000/svg" xmlns:xlink="http://www.w3.org/1999/xlink" viewBox="0 0 456.64 109.3"><defs><style>.cls-1{fill:#1d1d1b;}.cls-2{fill:none;stroke:#1d1d1b;}.cls-2,.cls-3,.cls-4{stroke-miterlimit:10;}.cls-3{fill:url(#Unbenannter_Verlauf_13);stroke:url(#Weiß_Schwarz);}.cls-4{fill:url(#Unbenannter_Verlauf_13-2);stroke:url(#Weiß_Schwarz-2);}</style><linearGradient id="Unbenannter_Verlauf_13" x1="240.48" y1="103.78" x2="456.64" y2="103.78" gradientUnits="userSpaceOnUse"><stop offset="0" stop-color="#fff"/><stop offset="0.03" stop-color="#e1e1e1"/><stop offset="0.07" stop-color="#b8b8b8"/><stop offset="0.12" stop-color="#939392"/><stop offset="0.18" stop-color="#737372"/><stop offset="0.24" stop-color="#585856"/><stop offset="0.3" stop-color="#424240"/><stop offset="0.38" stop-color="#313130"/><stop offset="0.48" stop-color="#262624"/><stop offset="0.62" stop-color="#1f1f1d"/><stop offset="1" stop-color="#1d1d1b"/></linearGradient><linearGradient id="Weiß_Schwarz" x1="240.48" y1="103.78" x2="456.64" y2="103.78" gradientTransform="translate(697.12 207.56) rotate(180)" gradientUnits="userSpaceOnUse"><stop offset="0" stop-color="#fff"/><stop offset="1" stop-color="#1d1d1b"/></linearGradient><linearGradient id="Unbenannter_Verlauf_13-2" x1="191.13" y1="116.49" x2="407.29" y2="116.49" gradientTransform="translate(407.29 220.27) rotate(180)" xlink:href="#Unbenannter_Verlauf_13"/><linearGradient id="Weiß_Schwarz-2" x1="289.83" y1="91.07" x2="505.99" y2="91.07" gradientTransform="translate(-289.83 12.71)" xlink:href="#Weiß_Schwarz"/></defs><g id="Ebene_2" data-name="Ebene 2"><g id="Ebene_1-2" data-name="Ebene 1"><path class="cls-1" d="M120.76,46.88h-1.28l.9-1-5.12-13.66-2.38.83,1.74-2.56-3.89-10.39H97.16L70.69,91.19H86.27l4.88-14.65h25.68l4.93,14.65h15.58ZM95.1,64.67l8.84-26.61,8.94,26.61Z"/><polygon class="cls-1" points="160.93 79.42 160.93 51.29 158.77 51.81 160.93 49.35 160.93 20.09 146.28 20.09 146.28 37.96 147.45 39.23 146.28 39.04 146.28 91.19 192.03 91.19 192.03 79.42 160.93 79.42"/><path class="cls-1" d="M76.6,14.59a27.63,27.63,0,0,0-12-10.65A41,41,0,0,0,46.6.19C35.06.19,16.85-.15,4.65.08A61.48,61.48,0,0,1,9.57,14.62l2.78-.45L9.76,15.56q.18.95.3,1.8c1,6.7,1,14.86,1,24.55v1c0,8.3-.28,17.12-1.93,25.66L11.1,70.1,9.16,71.55l.68,1.94-1.73-.26A54,54,0,0,1,0,91.19H29.85V59.12H46.29q16.18,0,25.34-7.71t9.16-21.1A29.76,29.76,0,0,0,76.6,14.59ZM58,40.44Q54,43.94,46.6,43.94H29.85V15.37H47q6.95.14,10.88,4.25a15,15,0,0,1,3.93,10.82Q61.85,36.94,58,40.44Z"/><path class="cls-1" d="M264.94,25.36a36.69,36.69,0,0,0-6.41-8.71l-2.35.52.25-2.46a35.7,35.7,0,0,0-5.35-3.77A39.87,39.87,0,0,0,231,5.87H198.32c4.76,4.77,5.58,5.93,6.88,11.93A131.76,131.76,0,0,1,206,69.24l1.05,1.06L205.87,70c-.1.55-.2,1.11-.31,1.66-2.51,12.54-2.15,12.1-6.08,19.56h31.65a40.29,40.29,0,0,0,19.52-4.86l-.52-2.1,1.27,1.69A35,35,0,0,0,265,71.67a44.59,44.59,0,0,0,4.9-21.15V46.6A44.57,44.57,0,0,0,264.94,25.36ZM252.1,51.05q-.12,12.54-5.56,19.28t-15.76,6.74h-8.5v-57H231q10.38,0,15.76,6.71t5.39,19.72Z"/><path class="cls-1" d="M314.77,38l-2.12.52,1.62-1.84-6.22-16.62H294.48L268,91.19h15.58l4.88-14.65h25.69l4.93,14.65h15.58ZM292.43,64.67,295.66,55l-1.6-1.17L296,54l5.3-16,8.93,26.61Z"/><path class="cls-1" d="M384.35,60.81l1-2-.19-.21q-5.71-5.57-18.22-9.33a39.42,39.42,0,0,1-10.28-4.39c-2.32-1.56-3.49-3.5-3.49-5.81a7.16,7.16,0,0,1,3-6,13,13,0,0,1,7.66-2.26l1.38-2.12.85,2.17a11.69,11.69,0,0,1,7.1,2.65,9.57,9.57,0,0,1,3.08,7.59h14.65a20.38,20.38,0,0,0-3.3-11.43,21.57,21.57,0,0,0-9.25-7.78,31.94,31.94,0,0,0-13.57-2.76,35,35,0,0,0-13.65,2.54,21.16,21.16,0,0,0-9.33,7.05A17.21,17.21,0,0,0,338.52,39q0,11.09,12.11,17.63a75.17,75.17,0,0,0,12.06,4.85q7.62,2.47,10.55,4.69a7.53,7.53,0,0,1,2.93,6.37,6.93,6.93,0,0,1-2.93,5.94q-2.92,2.11-8.15,2.12Q351,80.59,351,68.82H336.33a21.06,21.06,0,0,0,3.54,12.11,23.55,23.55,0,0,0,10.28,8.23,36.31,36.31,0,0,0,14.94,3q11.81,0,18.8-5.25t7-14.47a18.62,18.62,0,0,0-4.44-12.51Z"/><path class="cls-1" d="M453.86,54.18l2-3.34-2.16,1.72,2.08-2.9-1.64,1.57,1.72-2.42-1.55.95,2.29-2.5V20.09H442V48.9H413.43V33l-2.66,1.58,2.66-2.74V20.09H398.78v71.1h14.65V60.72H442v9.67l1.2,1.07-1.2-.09V91.19h14.65V51.65Z"/><rect class="cls-2" x="224.76" y="100.38" width="6.8" height="6.8" transform="translate(-6.56 191.73) rotate(-45)"/><line class="cls-3" x1="456.64" y1="103.78" x2="240.48" y2="103.78"/><line class="cls-4" y1="103.78" x2="216.16" y2="103.78"/></g></g></svg>